<svg xmlns="http://www.w3.org/2000/svg" viewBox="0 0 59.53 39.68"><defs><style>.cls-1{fill:#fff}</style></defs><g id="Layer_2" data-name="Layer 2"><g id="Layer_1-2" data-name="Layer 1"><path class="cls-1" d="M59.53 0H0v39.69h59.53V0z"/><path d="M59.01.53v38.63H.52V.53h58.49"/><path class="cls-1" d="M35.74 37.21a1.17 1.17 0 0 1-1-.42 2 2 0 0 1-.39-1.32 2.11 2.11 0 0 1 .4-1.35 1.08 1.08 0 0 1 .88-.43 1.15 1.15 0 0 1 .95.44A2.45 2.45 0 0 1 37 35.6v.15h-1.78a.87.87 0 0 0 .16.52.47.47 0 0 0 .37.19c.2 0 .34-.14.41-.43l.81.16v.05a1.41 1.41 0 0 1-.46.76 1.22 1.22 0 0 1-.77.21zm-.51-2.09h1a.87.87 0 0 0-.15-.5.42.42 0 0 0-.33-.17.43.43 0 0 0-.34.18.86.86 0 0 0-.18.49zM38.88 37.21a1.38 1.38 0 0 1-.88-.27 1.33 1.33 0 0 1-.46-.78l.77-.14a.49.49 0 0 0 .52.47.62.62 0 0 0 .35-.08.25.25 0 0 0 .11-.22.21.21 0 0 0 0-.14.61.61 0 0 0-.21-.09A3.23 3.23 0 0 1 38 35.5a1 1 0 0 1-.32-.76A1 1 0 0 1 38 34a1.24 1.24 0 0 1 .88-.29 1.39 1.39 0 0 1 .83.21 1.18 1.18 0 0 1 .4.69l-.76.17v-.05a.41.41 0 0 0-.45-.35.61.61 0 0 0-.35.07.18.18 0 0 0-.09.15.17.17 0 0 0 .08.14 3.53 3.53 0 0 0 .62.22 1.68 1.68 0 0 1 .83.42.93.93 0 0 1 .23.66 1.12 1.12 0 0 1-.34.82 1.35 1.35 0 0 1-1 .35zM41.78 37.13H41v-3.36h.76v.32a1 1 0 0 1 .23-.28.5.5 0 0 1 .34-.12.83.83 0 0 1 .49.17l-.25.86-.06-.05c-.21-.16-.39-.16-.53 0a.64.64 0 0 0-.15.37 8.2 8.2 0 0 0 0 1zM44.84 37.21a.87.87 0 0 1-.48-.15 1.22 1.22 0 0 1-.31-.29v.36h-.76v-4.6h.81v1.52a1.28 1.28 0 0 1 .29-.24.83.83 0 0 1 .44-.12 1 1 0 0 1 .85.45 2.14 2.14 0 0 1 .32 1.29 2.17 2.17 0 0 1-.34 1.31 1 1 0 0 1-.82.47zm-.2-2.76a.46.46 0 0 0-.38.22 1.22 1.22 0 0 0-.16.71 2 2 0 0 0 .07.62.63.63 0 0 0 .22.32.44.44 0 0 0 .28.1.42.42 0 0 0 .33-.22 1.39 1.39 0 0 0 .16-.75 1.45 1.45 0 0 0-.16-.77.45.45 0 0 0-.36-.23zM47.62 37.13h-.81v-1h.81zM49.84 37.21a1.32 1.32 0 0 1-1-.48 2 2 0 0 1-.4-1.33 2 2 0 0 1 .19-.89 1.53 1.53 0 0 1 .52-.62 1.39 1.39 0 0 1 .72-.2 1.24 1.24 0 0 1 1.06.53 2.18 2.18 0 0 1 .18 2.14 1.43 1.43 0 0 1-.52.63 1.24 1.24 0 0 1-.75.22zm0-2.72a.52.52 0 0 0-.42.24 1.53 1.53 0 0 0 0 1.44.51.51 0 0 0 .43.23.49.49 0 0 0 .42-.23 1.23 1.23 0 0 0 .18-.73 1.18 1.18 0 0 0-.18-.71.52.52 0 0 0-.44-.24zM52.83 37.13H52v-3.36h.76v.32a1 1 0 0 1 .22-.28.52.52 0 0 1 .34-.12.88.88 0 0 1 .5.17l-.25.86-.06-.05a.38.38 0 0 0-.53 0 .73.73 0 0 0-.14.37 7.67 7.67 0 0 0-.05 1zM55.61 38.45a1.8 1.8 0 0 1-.72-.12.87.87 0 0 1-.43-.37 1 1 0 0 1-.15-.56v-.16h.06l.85.12a.3.3 0 0 0 .09.22.45.45 0 0 0 .27.06.73.73 0 0 0 .35-.07.28.28 0 0 0 .14-.16 1.34 1.34 0 0 0 .05-.43v-.31a1.42 1.42 0 0 1-.28.27.9.9 0 0 1-.48.14 1 1 0 0 1-.79-.42 2.09 2.09 0 0 1-.36-1.28 2 2 0 0 1 .34-1.29 1 1 0 0 1 .84-.45.93.93 0 0 1 .49.14 1.27 1.27 0 0 1 .29.28v-.34h.76v3a2.88 2.88 0 0 1-.13 1 1.06 1.06 0 0 1-.42.51 1.56 1.56 0 0 1-.77.22zm0-4a.43.43 0 0 0-.38.22 1.22 1.22 0 0 0-.16.71 1.25 1.25 0 0 0 .16.73.42.42 0 0 0 .36.22.47.47 0 0 0 .4-.22 1.22 1.22 0 0 0 .17-.71 1.3 1.3 0 0 0-.16-.73.47.47 0 0 0-.41-.22zM2.59 11.32h54.36v19.55H2.59zM2.59 2.62h54.34v6.64H2.59zM2.6 37.13v-4.11h5.35v.96h-3.2v.59h2.71v.96H4.75v.64h3.32v.96H2.6zM12.62 34.22a.41.41 0 0 0-.31-.28 1.77 1.77 0 0 0-.55-.08c-.48 0-.69.09-.69.24 0 .61 3.78.23 3.78 1.72 0 1-1.27 1.42-3.07 1.42s-2.87-.63-2.91-1.37h2.06a.54.54 0 0 0 .35.32 1.75 1.75 0 0 0 .62.1c.53 0 .89-.11.89-.3 0-.62-3.78-.19-3.78-1.76 0-.87 1.21-1.31 2.85-1.31 1.82 0 2.65.58 2.81 1.3zM18.07 34.8h.85c.66 0 1-.1 1-.39s-.36-.43-.87-.43h-1zm0 .9v1.43h-2.15V33H19c2.19 0 2.91.38 2.91 1.18 0 .47-.34.87-1.1 1 .69.16 1.11.26 1.11 1.09 0 .53 0 .71.22.71v.13H20a1.86 1.86 0 0 1-.1-.72c0-.54-.15-.71-1.15-.71zM25.4 34v.69h.9c.43 0 .74-.12.74-.36s-.43-.33-.88-.33zm0 1.43v.76h.94c.53 0 .93-.07.93-.37s-.5-.39-1.19-.39zm-2.15 1.72V33h3.14c1.48 0 2.65.22 2.65 1 0 .42-.44.73-.85.89.71.12 1.09.5 1.09.94 0 .92-1.12 1.24-2.83 1.24z"/><path d="M31.82 21.46l-.55-1.94-3.59.93.55 1.94 3.59-.93zM11.14 15.92l11.4-3.39 1.14 3.6-5.71 1.7.47 1.47 5.27-1.57 1.14 3.6-5.27 1.56.49 1.55 5.9-1.75 1.14 3.59-11.58 3.45-4.39-13.81M32.67 16.2l14.49-3.61 1.11 3.86-4.65 1.16 3.12 10.83-5.18 1.29-3.13-10.84-4.65 1.17-1.11-3.86zM3.36 8.21V3.49h1.56v.73H4v1.16h.88v.73H4v1.38h1v.72zM5.11 3.49h.62l.45 3.43.5-3.43h.59l-.75 4.72h-.7zM7.55 8.21V3.49h1.56v.73h-1v1.16H9v.73h-.85v1.38h1v.72zM10.12 8.21h-.6V3.49h1.11a.55.55 0 0 1 .49.32 1.87 1.87 0 0 1 .18.92 2.13 2.13 0 0 1-.12.76.59.59 0 0 1-.41.39h.13a.44.44 0 0 1 .18.11 1.41 1.41 0 0 1 .15.28 1.61 1.61 0 0 1 .06.5V7.9a1 1 0 0 0 0 .25h-.59a1.63 1.63 0 0 1-.06-.45v-.8a1.06 1.06 0 0 0 0-.33.42.42 0 0 0-.12-.23.4.4 0 0 0-.26-.08h-.16zm0-2.68h.27a.18.18 0 0 0 .14-.06.48.48 0 0 0 .1-.17 1.32 1.32 0 0 0 0-.23 1.85 1.85 0 0 0 0-.23.94.94 0 0 0-.08-.48.25.25 0 0 0-.22-.14h-.27zM12.21 6.58l-.75-3.09h.65l.43 2 .46-2h.61l-.8 3.09v1.63h-.6zM14.85 8.29a.74.74 0 0 1-.57-.21 1.23 1.23 0 0 1-.3-.54 3.62 3.62 0 0 1-.1-.79v-.9-.91a3.43 3.43 0 0 1 .1-.77 1.27 1.27 0 0 1 .3-.55.88.88 0 0 1 1.14 0 1.27 1.27 0 0 1 .3.55 3.43 3.43 0 0 1 .1.77v1.81a3.62 3.62 0 0 1-.1.79 1.23 1.23 0 0 1-.3.54.74.74 0 0 1-.57.21zm0-.71a.23.23 0 0 0 .2-.1.83.83 0 0 0 .12-.31c0-.14 0-.32.05-.54s0-.48 0-.78v-.78c0-.22 0-.4-.05-.54a.83.83 0 0 0-.12-.31.25.25 0 0 0-.4 0 .83.83 0 0 0-.12.31v2.64a.83.83 0 0 0 .12.31.23.23 0 0 0 .2.1zM16.32 8.21V3.49h.81l.76 3.27V3.49h.56v4.72h-.79l-.78-3.45v3.45zM19 8.21V3.49h1.57v.73h-1v1.16h.89v.73h-.89v1.38h1v.72zM21.58 4.91h.22v-.52l.56-.39v.93h.29v.57h-.29v1.91a1.23 1.23 0 0 0 0 .13.19.19 0 0 0 .05.09.2.2 0 0 0 .11 0h.1v.57H22.33a.5.5 0 0 1-.29-.08.65.65 0 0 1-.17-.2 1 1 0 0 1-.07-.25 1.91 1.91 0 0 1 0-.2v-2h-.22zM23.68 8.28a.65.65 0 0 1-.68-.5 2 2 0 0 1-.12-.55v-.71-.65a2.07 2.07 0 0 1 .12-.53.78.78 0 0 1 .24-.34.64.64 0 0 1 .44-.13.68.68 0 0 1 .44.13.76.76 0 0 1 .24.36 2.07 2.07 0 0 1 .11.53V7.25a2.54 2.54 0 0 1-.11.55.84.84 0 0 1-.25.37.71.71 0 0 1-.43.11zm0-.59a.17.17 0 0 0 .12-.05.34.34 0 0 0 .08-.18 2.77 2.77 0 0 0 0-.38V6a2.29 2.29 0 0 0 0-.33.33.33 0 0 0-.08-.19.17.17 0 0 0-.13-.07.17.17 0 0 0-.14.07.42.42 0 0 0-.08.19 2.29 2.29 0 0 0 0 .33v1.06a2.77 2.77 0 0 0 0 .38.34.34 0 0 0 .08.18.17.17 0 0 0 .15.07zM27.51 3.49v.79h-.67v3.93h-.6V4.28h-.67v-.79zM27.79 8.21V3.49h1.56v.73h-1v1.16h.89v.73h-.89v1.38h1v.72zM29.77 8.21V3.49h1.56v.73h-1v1.16h.89v.73h-.89v1.38h1v.72zM31.76 8.21V3.49h.81l.76 3.27V3.49h.56v4.72h-.79l-.78-3.45v3.45z"/></g></g></svg>